<svg xmlns="http://www.w3.org/2000/svg"  viewBox="0 0 48 48" width="48px" height="48px"><rect width="15" height="25" x="17" y="2" fill="#f44336"/><path fill="#ff9800" d="M24.5,8l5.499,5.499L24.5,18.998l-5.499-5.499L24.5,8z"/><path fill="#ff9800" d="M21,10h7v7h-7V10z"/><path fill="#ffeb3b" d="M22.001,13.5c0,1.381,1.119,2.5,2.5,2.5c1.381,0,2.5-1.119,2.5-2.5S25.881,11,24.5,11 C23.12,11,22.001,12.119,22.001,13.5"/><rect width="15" height="25" x="32" y="2" fill="#42a5f5"/><rect width="15" height="25" x="2" y="2" fill="#42a5f5"/><path fill="#bbdefb" d="M13.884,12.214C13.952,11.987,14,11.75,14,11.5c0-1.381-1.119-2.5-2.5-2.5 c-1.002,0-1.859,0.593-2.258,1.443C8.9,10.17,8.472,10,8,10c-1.105,0-2,0.895-2,2c-1.105,0-2,0.895-2,2c0,1.105,0.895,2,2,2h7 c1.105,0,2-0.895,2-2C15,13.214,14.543,12.541,13.884,12.214z"/><path fill="#bbdefb" d="M43.884,12.214C43.952,11.987,44,11.75,44,11.5c0-1.381-1.119-2.5-2.5-2.5 c-1.002,0-1.859,0.593-2.258,1.443C38.9,10.17,38.472,10,38,10c-1.105,0-2,0.895-2,2c-1.105,0-2,0.895-2,2c0,1.105,0.895,2,2,2h7 c1.105,0,2-0.895,2-2C45,13.214,44.543,12.541,43.884,12.214z"/><path fill="#d500f9" d="M12,16h-2l2-3H9l-2,4h2l-1,4L12,16z"/><path fill="#ffb74d" d="M37,19c-2.2,0-4-1.8-4-4s1.8-4,4-4s4,1.8,4,4S39.2,19,37,19"/><path fill="#455a64" d="M36,20c-0.213,0-13,0-13,0c-1.104,0-2,0.896-2,2s0.896,2,2,2h8l1.5,23h7l0.9-11.2L43,34v-7	C43,23.1,39.9,20,36,20z"/><rect width="15" height="3" x="2" y="2" fill="#1565c0"/><rect width="15" height="3" x="32" y="2" fill="#1565c0"/><rect width="15" height="3" x="17" y="2" fill="#b71c1c"/></svg>