<?xml version="1.0" encoding="UTF-8"?>
<svg xmlns="http://www.w3.org/2000/svg" xmlns:xlink="http://www.w3.org/1999/xlink" viewBox="0 0 50 50" width="50px" height="50px">
<g id="surface17082644">
<path style=" stroke:none;fill-rule:nonzero;fill:rgb(100%,100%,100%);fill-opacity:1;" d="M 14.5 4 C 11.480469 4 8.808594 5.597656 7.304688 7.980469 C 6.917969 8.585938 6.886719 9.355469 7.21875 9.992188 C 7.554688 10.625 8.203125 11.035156 8.921875 11.058594 C 9.640625 11.085938 10.316406 10.722656 10.691406 10.113281 C 11.492188 8.84375 12.878906 8 14.5 8 C 17.050781 8 19.0625 10.050781 18.996094 12.621094 C 18.933594 15.054688 16.746094 17 14.199219 17 L 5 17 C 4.277344 16.988281 3.609375 17.367188 3.246094 17.992188 C 2.878906 18.613281 2.878906 19.386719 3.246094 20.007812 C 3.609375 20.632812 4.277344 21.011719 5 21 L 14.199219 21 C 18.800781 21 22.875 17.4375 22.996094 12.722656 C 23.121094 7.957031 19.246094 4 14.5 4 Z M 37 7 C 33.25 7 29.953125 9.082031 28.25 12.160156 C 27.714844 13.125 28.0625 14.34375 29.03125 14.878906 C 29.996094 15.414062 31.214844 15.066406 31.75 14.101562 C 32.773438 12.253906 34.722656 11 37 11 C 40.460938 11 43.199219 13.847656 42.988281 17.375 C 42.796875 20.542969 39.964844 23 36.6875 23 L 5 23 C 4.277344 22.988281 3.609375 23.367188 3.246094 23.992188 C 2.878906 24.613281 2.878906 25.386719 3.246094 26.007812 C 3.609375 26.632812 4.277344 27.011719 5 27 L 36.6875 27 C 41.976562 27 46.65625 22.996094 46.980469 17.613281 C 47.328125 11.851562 42.703125 7 37 7 Z M 5 29 C 4.277344 28.988281 3.609375 29.367188 3.246094 29.992188 C 2.878906 30.613281 2.878906 31.386719 3.246094 32.007812 C 3.609375 32.632812 4.277344 33.011719 5 33 L 24.199219 33 C 26.746094 33 28.933594 34.945312 28.996094 37.378906 C 29.0625 39.949219 27.050781 42 24.5 42 C 22.878906 42 21.492188 41.15625 20.691406 39.890625 C 20.316406 39.277344 19.640625 38.914062 18.921875 38.941406 C 18.203125 38.964844 17.554688 39.375 17.21875 40.007812 C 16.886719 40.644531 16.917969 41.414062 17.304688 42.019531 C 18.808594 44.402344 21.480469 46 24.5 46 C 29.246094 46 33.121094 42.042969 32.996094 37.277344 C 32.875 32.5625 28.800781 29 24.199219 29 Z M 5 29 "/>
</g>
</svg>
